<svg xmlns="http://www.w3.org/2000/svg" version="1.1" xmlns:xlink="http://www.w3.org/1999/xlink" width="512" height="512" x="0" y="0" viewBox="0 0 66 66" style="enable-background:new 0 0 512 512" xml:space="preserve" class=""><g><path fill="#a3cd44" d="M39.1 8.3h9.7v6.2h-9.7z" opacity="1" data-original="#a3cd44" class=""></path><path fill="#6fac43" d="M48.7 8.3h-9.6v3.1l9.6.1z" opacity="1" data-original="#6fac43" class=""></path><path fill="#a3cd44" d="m32.5 11.4 6.8 6.8V4.5z" opacity="1" data-original="#a3cd44" class=""></path><path fill="#6fac43" d="M32.5 11.4h6.8v6.8z" opacity="1" data-original="#6fac43" class=""></path><path fill="#a3cd44" d="M15.7 51.5h9.7v6.2h-9.7z" opacity="1" data-original="#a3cd44" class=""></path><path fill="#6fac43" d="M15.7 57.7h9.7v-3.1l-9.7-.1z" opacity="1" data-original="#6fac43" class=""></path><path fill="#a3cd44" d="m32 54.6-6.9-6.8v13.7z" opacity="1" data-original="#a3cd44" class=""></path><path fill="#6fac43" d="M32 54.6h-6.9v-6.8z" opacity="1" data-original="#6fac43" class=""></path><path fill="#1e87b7" d="M65 55.7V22.4c0-1.5-1.2-2.7-2.7-2.7H43c-1.5 0-2.7 1.2-2.7 2.7v33.3c0 1.5 1.2 2.7 2.7 2.7h19.3c1.5 0 2.7-1.2 2.7-2.7z" opacity="1" data-original="#1e87b7"></path><path fill="#3b4c56" d="M54.3 19.7h5.5v38.7h-5.5z" opacity="1" data-original="#3b4c56" class=""></path><path fill="#ffffff" d="M46.3 25.1h4.2v19.3h-4.2z" opacity="1" data-original="#ffffff"></path><path fill="#e6e6e8" d="M46.3 35.1h4.2v9.3h-4.2z" opacity="1" data-original="#e6e6e8"></path><g fill="#283a48"><path d="m59.8 56.4-5.5-5.6v-5.1l5.5 5.5zM59.8 44.2l-5.5-5.5v-5.1l5.5 5.5zM59.8 32.1l-5.5-5.5v-5.1l5.5 5.5z" fill="#283a48" opacity="1" data-original="#283a48" class=""></path></g><circle cx="32.8" cy="33.3" r="12.5" fill="#fad22c" opacity="1" data-original="#fad22c" class=""></circle><path fill="#e0b624" d="M32.8 20.9v3.5c5 0 9 4 9 9s-4 9-9 9v3.5c6.9 0 12.5-5.6 12.5-12.5s-5.6-12.5-12.5-12.5zM23.8 33.3c0 5 4 9 9 9v-18c-4.9.1-9 4.1-9 9z" opacity="1" data-original="#e0b624" class=""></path><path fill="#fad22c" d="M41.8 33.3c0-5-4-9-9-9v18c5 0 9-4 9-9z" opacity="1" data-original="#fad22c" class=""></path><path fill="#ffffff" d="M32.5 39.2v-1c-1.3-.1-2.4-.6-3.5-1.5l1-1.2c.8.7 1.6 1.1 2.4 1.2V34c-1.8-.4-3.1-1-3.1-2.8 0-1.7 1.3-2.7 3.1-2.8v-.7h.9v.7c1 .1 2 .4 2.9 1.1l-.9 1.3c-.6-.4-1.3-.7-2-.8v2.6c1.8.4 3.1 1.1 3.1 2.9s-1.4 2.8-3.2 2.8v1h-.7zm-1.3-8.3c0 .8.6 1 1.4 1.3v-2.4c-.8 0-1.4.4-1.4 1.1zm3.7 4.5c0-.8-.6-1.1-1.5-1.3v2.5c.8 0 1.5-.4 1.5-1.2z" opacity="1" data-original="#ffffff"></path><path fill="#e8664a" d="M1 7.7V41c0 1.5 1.2 2.7 2.7 2.7H23c1.5 0 2.7-1.2 2.7-2.7V7.7C25.7 6.2 24.5 5 23 5H3.7C2.2 5 1 6.2 1 7.7z" opacity="1" data-original="#e8664a" class=""></path><path fill="#3b4c56" d="M6.2 5h5.5v38.7H6.2z" opacity="1" data-original="#3b4c56" class=""></path><path fill="#ffffff" d="M15.6 19.1h4.2v19.3h-4.2z" opacity="1" data-original="#ffffff"></path><path fill="#e6e6e8" d="M15.6 19.1h4.2v9.3h-4.2z" opacity="1" data-original="#e6e6e8"></path><g fill="#283a48"><path d="m6.2 7.1 5.5 5.5v5.1l-5.5-5.5zM6.2 19.2l5.5 5.5v5.1l-5.5-5.5zM6.2 31.3l5.5 5.5v5.1l-5.5-5.5z" fill="#283a48" opacity="1" data-original="#283a48" class=""></path></g></g></svg>