<!-- <svg xmlns="http://www.w3.org/2000/svg" version="1.1" xmlns:xlink="http://www.w3.org/1999/xlink" width="512" height="512" x="0" y="0" viewBox="0 0 64 64" style="enable-background:new 0 0 512 512" xml:space="preserve" class=""><g><linearGradient id="a" x1="2" x2="62" y1="32" y2="32" gradientUnits="userSpaceOnUse"><stop stop-opacity="1" stop-color="#243262" offset="0"></stop><stop stop-opacity="1" stop-color="#5490c6" offset="1"></stop></linearGradient><path fill="url(#a)" d="M32 2a30 30 0 1 0 30 30A30.037 30.037 0 0 0 32 2zm9.34 12.9a1.349 1.349 0 0 1 1.8.6l4.64 9.12a8.156 8.156 0 0 0-2.6-.25c-.6-1.13-2.28-4.54-2.87-5.6a.725.725 0 0 0-.88-.2.403.403 0 0 1-.53-.16.714.714 0 0 0-.96-.31l-12.32 6.27h-4.88c5.49-2.8 13.06-6.64 18.6-9.47zm2.24 9.47H30.76l9.33-4.75a1.826 1.826 0 0 0 1.16.43h.12zM12 41.44a7.814 7.814 0 1 1 13.35 5.51A7.855 7.855 0 0 1 12 41.44zm38.8 2.2a4.733 4.733 0 0 1-4.73 4.73H25.91c7.32-6.47.76-18.52-8.67-15.8V23.3a3.935 3.935 0 0 1 3.93-3.92h8.23l-2.8 1.43h-5.43a2.497 2.497 0 0 0-.89 4.82 2.273 2.273 0 0 0 .89.17h24.91a4.696 4.696 0 0 1 3.02 1.1 4.774 4.774 0 0 1 1.7 3.63v1.21a.717.717 0 0 0-.13-.01h-5.9c-7.08.25-7.1 10.46 0 10.72h5.9a.717.717 0 0 0 .13-.01zm1.2-3.96A1.319 1.319 0 0 1 50.8 41a.296.296 0 0 1-.13.02h-5.9a3.93 3.93 0 0 1 0-7.86h5.9a.57.57 0 0 1 .13.01 1.326 1.326 0 0 1 1.2 1.32zm-28.31 2.47h-3.16v3.16a.715.715 0 0 1-1.43 0v-3.16h-3.16a.715.715 0 0 1-.72-.71.723.723 0 0 1 .72-.72h3.16v-3.15a.709.709 0 0 1 .71-.72.717.717 0 0 1 .72.72v3.15h3.16a.715.715 0 0 1 0 1.43zm22.04-3.73a1.335 1.335 0 0 1 0-2.67 1.335 1.335 0 0 1 0 2.67z" opacity="1" data-original="url(#a)" class=""></path></g></svg> -->

<svg xmlns="http://www.w3.org/2000/svg" version="1.1" xmlns:xlink="http://www.w3.org/1999/xlink" width="512" height="512" x="0" y="0" viewBox="0 0 64 64" style="enable-background:new 0 0 512 512" xml:space="preserve" class=""><g><linearGradient id="a" x1="2" x2="62" y1="32" y2="32" gradientUnits="userSpaceOnUse"><stop stop-opacity="1" stop-color="#111827" offset="0"></stop><stop stop-opacity="1" stop-color="#111827" offset="1"></stop></linearGradient><path fill="url(#a)" d="M32 2a30 30 0 1 0 30 30A30.037 30.037 0 0 0 32 2zm9.34 12.9a1.349 1.349 0 0 1 1.8.6l4.64 9.12a8.156 8.156 0 0 0-2.6-.25c-.6-1.13-2.28-4.54-2.87-5.6a.725.725 0 0 0-.88-.2.403.403 0 0 1-.53-.16.714.714 0 0 0-.96-.31l-12.32 6.27h-4.88c5.49-2.8 13.06-6.64 18.6-9.47zm2.24 9.47H30.76l9.33-4.75a1.826 1.826 0 0 0 1.16.43h.12zM12 41.44a7.814 7.814 0 1 1 13.35 5.51A7.855 7.855 0 0 1 12 41.44zm38.8 2.2a4.733 4.733 0 0 1-4.73 4.73H25.91c7.32-6.47.76-18.52-8.67-15.8V23.3a3.935 3.935 0 0 1 3.93-3.92h8.23l-2.8 1.43h-5.43a2.497 2.497 0 0 0-.89 4.82 2.273 2.273 0 0 0 .89.17h24.91a4.696 4.696 0 0 1 3.02 1.1 4.774 4.774 0 0 1 1.7 3.63v1.21a.717.717 0 0 0-.13-.01h-5.9c-7.08.25-7.1 10.46 0 10.72h5.9a.717.717 0 0 0 .13-.01zm1.2-3.96A1.319 1.319 0 0 1 50.8 41a.296.296 0 0 1-.13.02h-5.9a3.93 3.93 0 0 1 0-7.86h5.9a.57.57 0 0 1 .13.01 1.326 1.326 0 0 1 1.2 1.32zm-28.31 2.47h-3.16v3.16a.715.715 0 0 1-1.43 0v-3.16h-3.16a.715.715 0 0 1-.72-.71.723.723 0 0 1 .72-.72h3.16v-3.15a.709.709 0 0 1 .71-.72.717.717 0 0 1 .72.72v3.15h3.16a.715.715 0 0 1 0 1.43zm22.04-3.73a1.335 1.335 0 0 1 0-2.67 1.335 1.335 0 0 1 0 2.67z" opacity="1" data-original="url(#a)" class=""></path></g></svg>